{
	"asset":{
		"generator":"Khronos glTF Blender I/O v4.1.62",
		"version":"2.0"
	},
	"scene":0,
	"scenes":[
		{
			"name":"Scene",
			"nodes":[
				0
			]
		}
	],
	"nodes":[
		{
			"mesh":0,
			"name":"node_damagedHelmet_-6514",
			"rotation":[
				0.70710688829422,
				0,
				0,
				0.7071066498756409
			]
		}
	],
	"materials":[
		{
			"emissiveFactor":[
				1,
				1,
				1
			],
			"name":"Material_MR",
			"pbrMetallicRoughness":{}
		}
	],
	"meshes":[
		{
			"name":"mesh_helmet_LP_13930damagedHelmet",
			"primitives":[
				{
					"attributes":{
						"POSITION":0,
						"NORMAL":1,
						"TEXCOORD_0":2,
						"TANGENT":3
					},
					"indices":4,
					"material":0
				}
			]
		}
	],
	"accessors":[
		{
			"bufferView":0,
			"componentType":5126,
			"count":14806,
			"max":[
				0.9424954056739807,
				0.9009949564933777,
				0.8128451108932495
			],
			"min":[
				-0.9474585652351379,
				-0.900973916053772,
				-1.18715500831604
			],
			"type":"VEC3"
		},
		{
			"bufferView":1,
			"componentType":5126,
			"count":14806,
			"type":"VEC3"
		},
		{
			"bufferView":2,
			"componentType":5126,
			"count":14806,
			"type":"VEC2"
		},
		{
			"bufferView":3,
			"componentType":5126,
			"count":14806,
			"type":"VEC4"
		},
		{
			"bufferView":4,
			"componentType":5123,
			"count":46356,
			"type":"SCALAR"
		}
	],
	"bufferViews":[
		{
			"buffer":0,
			"byteLength":177672,
			"byteOffset":0,
			"target":34962
		},
		{
			"buffer":0,
			"byteLength":177672,
			"byteOffset":177672,
			"target":34962
		},
		{
			"buffer":0,
			"byteLength":118448,
			"byteOffset":355344,
			"target":34962
		},
		{
			"buffer":0,
			"byteLength":236896,
			"byteOffset":473792,
			"target":34962
		},
		{
			"buffer":0,
			"byteLength":92712,
			"byteOffset":710688,
			"target":34963
		}
	],
	"buffers":[
		{
			"byteLength":803400,
			"uri":"DamagedHelmet.bin"
		}
	]
}
